<svg width="800" height="400" viewBox="0 0 800 400" xmlns="http://www.w3.org/2000/svg">
  <defs>
    <linearGradient id="algoGrad" x1="0%" y1="0%" x2="100%" y2="100%">
      <stop offset="0%" style="stop-color:#f093fb;stop-opacity:1" />
      <stop offset="100%" style="stop-color:#f5576c;stop-opacity:1" />
    </linearGradient>
  </defs>
  
  <rect width="800" height="400" fill="url(#algoGrad)"/>
  
  <!-- Title -->
  <text x="400" y="60" text-anchor="middle" fill="white" font-size="42" font-weight="bold">
    10 Core Topics Covered
  </text>
  
  <!-- Topic boxes - Row 1 -->
  <g transform="translate(50, 120)">
    <rect width="140" height="60" fill="rgba(255,255,255,0.2)" rx="10"/>
    <text x="70" y="25" text-anchor="middle" fill="white" font-size="16" font-weight="bold">Arrays &amp;</text>
    <text x="70" y="45" text-anchor="middle" fill="white" font-size="16" font-weight="bold">Strings</text>
  </g>
  
  <g transform="translate(210, 120)">
    <rect width="140" height="60" fill="rgba(255,255,255,0.2)" rx="10"/>
    <text x="70" y="25" text-anchor="middle" fill="white" font-size="16" font-weight="bold">Linked</text>
    <text x="70" y="45" text-anchor="middle" fill="white" font-size="16" font-weight="bold">Lists</text>
  </g>
  
  <g transform="translate(370, 120)">
    <rect width="140" height="60" fill="rgba(255,255,255,0.2)" rx="10"/>
    <text x="70" y="25" text-anchor="middle" fill="white" font-size="16" font-weight="bold">Stacks &amp;</text>
    <text x="70" y="45" text-anchor="middle" fill="white" font-size="16" font-weight="bold">Queues</text>
  </g>
  
  <g transform="translate(530, 120)">
    <rect width="140" height="60" fill="rgba(255,255,255,0.2)" rx="10"/>
    <text x="70" y="25" text-anchor="middle" fill="white" font-size="16" font-weight="bold">Trees &amp;</text>
    <text x="70" y="45" text-anchor="middle" fill="white" font-size="16" font-weight="bold">Graphs</text>
  </g>
  
  <!-- Topic boxes - Row 2 -->
  <g transform="translate(50, 210)">
    <rect width="140" height="60" fill="rgba(255,255,255,0.2)" rx="10"/>
    <text x="70" y="35" text-anchor="middle" fill="white" font-size="16" font-weight="bold">Recursion</text>
  </g>
  
  <g transform="translate(210, 210)">
    <rect width="140" height="60" fill="rgba(255,255,255,0.2)" rx="10"/>
    <text x="70" y="25" text-anchor="middle" fill="white" font-size="16" font-weight="bold">Dynamic</text>
    <text x="70" y="45" text-anchor="middle" fill="white" font-size="16" font-weight="bold">Programming</text>
  </g>
  
  <g transform="translate(370, 210)">
    <rect width="140" height="60" fill="rgba(255,255,255,0.2)" rx="10"/>
    <text x="70" y="35" text-anchor="middle" fill="white" font-size="16" font-weight="bold">Greedy</text>
  </g>
  
  <g transform="translate(530, 210)">
    <rect width="140" height="60" fill="rgba(255,255,255,0.2)" rx="10"/>
    <text x="70" y="25" text-anchor="middle" fill="white" font-size="16" font-weight="bold">Sorting &amp;</text>
    <text x="70" y="45" text-anchor="middle" fill="white" font-size="16" font-weight="bold">Searching</text>
  </g>
  
  <!-- Topic boxes - Row 3 -->
  <g transform="translate(130, 300)">
    <rect width="140" height="60" fill="rgba(255,255,255,0.2)" rx="10"/>
    <text x="70" y="35" text-anchor="middle" fill="white" font-size="16" font-weight="bold">Hashing</text>
  </g>
  
  <g transform="translate(450, 300)">
    <rect width="140" height="60" fill="rgba(255,255,255,0.2)" rx="10"/>
    <text x="70" y="25" text-anchor="middle" fill="white" font-size="16" font-weight="bold">Practice</text>
    <text x="70" y="45" text-anchor="middle" fill="white" font-size="16" font-weight="bold">Problems</text>
  </g>
  
  <!-- Decorative elements -->
  <circle cx="100" cy="50" r="60" fill="rgba(255,255,255,0.1)"/>
  <circle cx="700" cy="350" r="80" fill="rgba(255,255,255,0.1)"/>
</svg>
